<svg xmlns="http://www.w3.org/2000/svg" version="1.1" xmlns:xlink="http://www.w3.org/1999/xlink" xmlns:svgjs="http://svgjs.dev/svgjs" width="1000" height="1000" viewBox="0 0 1000 1000"><rect width="1000" height="1000" fill="#00032a"></rect><g transform="matrix(0.7,0,0,0.7,149.57575757575756,282.1265587044535)"><svg viewBox="0 0 396 247" data-background-color="#00032a" preserveAspectRatio="xMidYMid meet" height="623" width="1000" xmlns="http://www.w3.org/2000/svg" xmlns:xlink="http://www.w3.org/1999/xlink"><g id="tight-bounds" transform="matrix(1,0,0,1,0.2400000000000091,-0.09999999999999432)"><svg viewBox="0 0 395.52 247.2" height="247.2" width="395.52"><g><svg></svg></g><g><svg viewBox="0 0 395.52 247.2" height="247.2" width="395.52"><g><g><path xmlns="http://www.w3.org/2000/svg" d="M29.564 71.941l0 4.54-28.564 0v-8.49c0-14.991 4.761-27.045 14.282-36.162 6.483-6.078 13.776-10.028 21.879-11.851 8.103-1.823 18.03-2.735 29.78-2.735h32.211v26.741h-36.161c-22.284 0-33.426 9.319-33.427 27.957zM29.564 229.957h-28.564l0-59.238h28.564zM155.065 17.243l0 59.238-28.564 0v-59.238zM155.065 229.957h-28.564l0-59.238 28.564 0zM345.17 65.681c-5.997-7.577-13.249-13.593-21.757-18.05-8.509-4.457-18.131-6.685-28.868-6.685-10.737 0-20.36 2.228-28.869 6.685-8.509 4.457-15.741 10.474-21.696 18.05-2.642 3.356-5.005 6.956-7.089 10.8l-33.819 0c4.786-12.526 11.271-23.317 19.454-32.375 8.711-9.602 19.144-16.997 31.299-22.183 12.155-5.146 25.728-7.718 40.72-7.719 14.789 0 28.321 2.573 40.598 7.719 12.236 5.186 22.71 12.58 31.42 22.183 8.183 9.058 14.667 19.85 19.454 32.375h-33.788c-2.082-3.844-4.434-7.444-7.059-10.8zM243.98 182.552c5.956 7.293 13.188 13.067 21.696 17.321 8.509 4.254 18.131 6.381 28.869 6.381 10.737 0 20.36-2.127 28.868-6.381 8.509-4.254 15.761-10.028 21.757-17.321 2.956-3.62 5.568-7.564 7.836-11.833l33.763 0c-4.759 12.968-11.393 24.002-19.902 33.104-8.711 9.319-19.185 16.511-31.421 21.576-12.277 5.065-25.911 7.597-40.901 7.597-14.991 0-28.605-2.532-40.841-7.597-12.277-5.065-22.77-12.256-31.482-21.576-8.509-9.102-15.123-20.137-19.843-33.104h33.734c2.268 4.269 4.89 8.213 7.867 11.833z" fill="#fbfbf8" fill-rule="nonzero" stroke="none" stroke-width="1" stroke-linecap="butt" stroke-linejoin="miter" stroke-miterlimit="10" stroke-dasharray="" stroke-dashoffset="0" font-family="none" font-weight="none" font-size="none" text-anchor="none" style="mix-blend-mode: normal" data-fill-palette-color="tertiary"></path></g></g><g transform="matrix(1,0,0,1,0,87.12609886837402)"><svg viewBox="0 0 395.52 72.94780226325194" height="72.94780226325194" width="395.52"><g><svg viewBox="0 0 395.52 72.94780226325194" height="72.94780226325194" width="395.52"><g><svg viewBox="0 0 395.52 72.94780226325194" height="72.94780226325194" width="395.52"><g><svg viewBox="0 0 395.52 72.94780226325194" height="72.94780226325194" width="395.52"><g id="textblocktransform"><svg viewBox="0 0 395.52 72.94780226325194" height="72.94780226325194" width="395.52" id="textblock"><g><svg viewBox="0 0 395.52 72.94780226325194" height="72.94780226325194" width="395.52"><g transform="matrix(1,0,0,1,0,0)"><svg width="395.52" viewBox="1.149999976158142 -35.04999923706055 251.82000732421875 46.44999694824219" height="72.94780226325194" data-palette-color="#fbfbf8"><path d="M14.8-24L14.8-19.8 9.05-19.8 9.05 0 4.55 0 4.55-19.8 1.15-19.8 3.15-24 4.55-24Q4.55-29.1 8-32.08 11.45-35.05 16.8-35.05L16.8-35.05 16.8-30.85Q9.05-30.85 9.05-24L9.05-24 14.8-24ZM25.3-24L25.3 0 20.9 0 20.9-19.8 16.8-19.8 18.8-24 25.3-24ZM20.7-29L20.7-29Q20.05-29.85 20.05-30.85 20.05-31.85 20.7-32.68 21.35-33.5 22.7-33.5 24.05-33.5 24.7-32.68 25.35-31.85 25.35-30.85 25.35-29.85 24.7-29.03 24.05-28.2 22.7-28.2 21.35-28.2 20.7-29ZM43.15 0L43.15 0Q38.25 0 34.75-3.3 31.25-6.6 31.25-11.75L31.25-11.75Q31.25-16.95 34.77-20.48 38.3-24 43.5-24L43.5-24 55.25-24 55.25-0.7Q55.25 1.55 54.67 3.35 54.09 5.15 53.05 6.4 52 7.65 51.15 8.35 50.3 9.05 49.09 9.8L49.09 9.8Q46 11.4 41.55 11.4L41.55 11.4 35.95 11.4 35.95 7.2 41.09 7.2Q45.5 7.2 47.34 6.1L47.34 6.1Q50.75 4.2 50.75-0.2L50.75-0.2 50.75-19.8 43.5-19.8Q39.95-19.8 37.84-17.6 35.75-15.4 35.75-11.75L35.75-11.75Q35.75-8.25 37.92-6.23 40.09-4.2 43.15-4.2L43.15-4.2Q46.45-4.2 48.95-6L48.95-6 48.95-1.5Q46.25 0 43.15 0ZM81.39-24L81.39 0 72.74 0Q67.19 0 64.79-1.65L64.79-1.65Q62.64-3.1 62.07-5.13 61.49-7.15 61.49-10.45L61.49-10.45 61.49-24 65.89-24 65.89-10.5Q65.89-9.6 65.94-8.97 65.99-8.35 66.29-7.38 66.59-6.4 67.14-5.78 67.69-5.15 68.74-4.67 69.79-4.2 71.29-4.2L71.29-4.2 76.99-4.2 76.99-24 81.39-24ZM91.29 0L86.89 0 86.89-13.65Q86.89-19.4 89.04-21.6L89.04-21.6Q90.09-22.7 91.59-23.25 93.09-23.8 94.22-23.9 95.34-24 97.29-24L97.29-24 101.69-24 101.69-19.8 96.39-19.8Q95.39-19.8 94.84-19.75 94.29-19.7 93.54-19.4 92.79-19.1 92.24-18.45L92.24-18.45Q91.29-17.25 91.29-13.65L91.29-13.65 91.29 0ZM116.69-24.5L116.69-24.5Q125.19-24.15 125.19-17.45L125.19-17.45Q125.19-9.1 114.24-9.1L114.24-9.1 112.19-9.1 112.19-12.95 114.59-12.95Q117.94-12.95 119.24-13.98 120.54-15 120.54-17.4L120.54-17.4Q120.54-18.95 119.39-19.73 118.24-20.5 116.44-20.5L116.44-20.5Q112.89-20.5 110.86-18 108.84-15.5 108.84-12L108.84-12Q108.84-8.3 111.01-6 113.19-3.7 116.69-3.7L116.69-3.7Q119.84-3.7 121.84-5.25L121.84-5.25 124.84-2.3Q121.39 0.5 116.69 0.5L116.69 0.5Q110.99 0.5 107.59-2.85 104.19-6.2 104.19-11.5L104.19-11.5Q104.19-17.4 107.54-21.05 110.89-24.7 116.69-24.5ZM148.33-24L148.33 0 143.93 0 143.93-19.8 139.83-19.8 141.83-24 148.33-24ZM143.73-29L143.73-29Q143.08-29.85 143.08-30.85 143.08-31.85 143.73-32.68 144.38-33.5 145.73-33.5 147.08-33.5 147.73-32.68 148.38-31.85 148.38-30.85 148.38-29.85 147.73-29.03 147.08-28.2 145.73-28.2 144.38-28.2 143.73-29ZM156.98-19.8L152.53-19.8 161.48-28.75 161.48-24 168.23-24 168.23-19.8 161.48-19.8 161.48-9.5Q161.48-7.75 162.06-6.6 162.63-5.45 163.73-4.98 164.83-4.5 165.81-4.35 166.78-4.2 168.23-4.2L168.23-4.2 168.23 0Q162.48 0 159.73-2.2 156.98-4.4 156.98-9.5L156.98-9.5 156.98-19.8ZM187.38-20.85L187.38-20.85Q190.88-24.5 196.13-24.5L196.13-24.5Q198.68-24.5 200.9-23.53 203.13-22.55 204.8-20.85 206.47-19.15 207.43-16.88 208.38-14.6 208.38-12L208.38-12Q208.38-9.4 207.45-7.13 206.53-4.85 204.88-3.15 203.22-1.45 200.97-0.48 198.72 0.5 196.13 0.5L196.13 0.5Q193.47 0.5 191.25-0.48 189.03-1.45 187.38-3.15 185.72-4.85 184.8-7.13 183.88-9.4 183.88-12L183.88-12Q183.88-17.3 187.38-20.85ZM196.13-20.3L196.13-20.3Q192.63-20.3 190.5-18 188.38-15.7 188.38-12 188.38-8.3 190.5-6 192.63-3.7 196.13-3.7L196.13-3.7Q199.68-3.7 201.78-6.03 203.88-8.35 203.88-12 203.88-15.65 201.78-17.98 199.68-20.3 196.13-20.3ZM233.52-24L233.52 0 224.87 0Q219.32 0 216.92-1.65L216.92-1.65Q214.77-3.1 214.2-5.13 213.62-7.15 213.62-10.45L213.62-10.45 213.62-24 218.02-24 218.02-10.5Q218.02-9.6 218.07-8.97 218.12-8.35 218.42-7.38 218.72-6.4 219.27-5.78 219.82-5.15 220.87-4.67 221.92-4.2 223.42-4.2L223.42-4.2 229.12-4.2 229.12-24 233.52-24ZM241.72-19.8L237.27-19.8 246.22-28.75 246.22-24 252.97-24 252.97-19.8 246.22-19.8 246.22-9.5Q246.22-7.75 246.8-6.6 247.37-5.45 248.47-4.98 249.57-4.5 250.55-4.35 251.52-4.2 252.97-4.2L252.97-4.2 252.97 0Q247.22 0 244.47-2.2 241.72-4.4 241.72-9.5L241.72-9.5 241.72-19.8Z" opacity="1" transform="matrix(1,0,0,1,0,0)" fill="#fbfbf8" class="undefined-text-0" data-fill-palette-color="primary" id="text-0"></path></svg></g></svg></g></svg></g></svg></g><g></g></svg></g></svg></g></svg></g></svg></g><defs></defs></svg><rect width="395.52" height="247.2" fill="none" stroke="none" visibility="hidden"></rect></g></svg></g></svg>